<?xml version="1.0" encoding="UTF-8"?>
<svg xmlns="http://www.w3.org/2000/svg" xmlns:xlink="http://www.w3.org/1999/xlink" width="96px" height="96px" viewBox="0 0 96 96" version="1.1">
<g id="surface1">
<path style=" stroke:none;fill-rule:nonzero;fill:rgb(0%,0%,0%);fill-opacity:1;" d="M 0 0 C 31.679688 0 63.359375 0 96 0 C 96 31.679688 96 63.359375 96 96 C 64.320312 96 32.640625 96 0 96 C 0 64.320312 0 32.640625 0 0 Z M 0 0 "/>
<path style=" stroke:none;fill-rule:nonzero;fill:rgb(97.647059%,97.647059%,97.647059%);fill-opacity:1;" d="M 26.8125 35.8125 C 40.453125 35.8125 40.453125 35.8125 42.738281 37.945312 C 44.136719 39.457031 44.339844 41.109375 44.300781 43.089844 C 44.214844 44.949219 43.550781 46.273438 42.257812 47.601562 C 41.492188 48.285156 40.726562 48.800781 39.75 49.125 C 40.003906 49.921875 40.300781 50.683594 40.636719 51.453125 C 40.710938 51.621094 40.710938 51.621094 40.785156 51.792969 C 40.890625 52.035156 40.992188 52.273438 41.097656 52.515625 C 41.261719 52.890625 41.425781 53.265625 41.589844 53.640625 C 41.808594 54.148438 42.03125 54.652344 42.25 55.15625 C 42.6875 56.160156 43.125 57.164062 43.558594 58.171875 C 43.664062 58.414062 43.664062 58.414062 43.773438 58.664062 C 43.835938 58.8125 43.902344 58.960938 43.964844 59.113281 C 44.023438 59.238281 44.078125 59.367188 44.132812 59.496094 C 44.25 59.8125 44.25 59.8125 44.25 60.1875 C 43.136719 60.1875 42.023438 60.1875 40.875 60.1875 C 40.738281 59.851562 40.597656 59.515625 40.457031 59.167969 C 39.171875 56.0625 37.875 52.96875 36.5625 49.875 C 33.3125 49.78125 33.3125 49.78125 30 49.6875 C 30 53.152344 30 56.617188 30 60.1875 C 28.949219 60.1875 27.894531 60.1875 26.8125 60.1875 C 26.8125 52.144531 26.8125 44.101562 26.8125 35.8125 Z M 26.8125 35.8125 "/>
<path style=" stroke:none;fill-rule:nonzero;fill:rgb(98.431373%,98.431373%,98.431373%);fill-opacity:1;" d="M 49.6875 35.8125 C 50.738281 35.8125 51.792969 35.8125 52.875 35.8125 C 52.875 39.277344 52.875 42.742188 52.875 46.3125 C 57.207031 46.3125 61.539062 46.3125 66 46.3125 C 66 42.847656 66 39.382812 66 35.8125 C 67.050781 35.8125 68.105469 35.8125 69.1875 35.8125 C 69.1875 43.855469 69.1875 51.898438 69.1875 60.1875 C 68.136719 60.1875 67.082031 60.1875 66 60.1875 C 66 56.476562 66 52.761719 66 48.9375 C 61.667969 48.9375 57.335938 48.9375 52.875 48.9375 C 52.875 52.648438 52.875 56.363281 52.875 60.1875 C 51.824219 60.1875 50.769531 60.1875 49.6875 60.1875 C 49.6875 52.144531 49.6875 44.101562 49.6875 35.8125 Z M 49.6875 35.8125 "/>
<path style=" stroke:none;fill-rule:nonzero;fill:rgb(0.392157%,0.392157%,0.392157%);fill-opacity:1;" d="M 30 38.4375 C 31.890625 38.410156 31.890625 38.410156 33.820312 38.378906 C 34.410156 38.367188 34.410156 38.367188 35.015625 38.351562 C 38.613281 38.308594 38.613281 38.308594 40.054688 39.660156 C 41.027344 40.75 41.148438 41.636719 41.121094 43.0625 C 41.007812 44.273438 40.597656 45.167969 39.714844 46.007812 C 38.453125 46.953125 37.089844 47.148438 35.546875 47.117188 C 35.40625 47.117188 35.265625 47.117188 35.117188 47.117188 C 34.59375 47.113281 34.074219 47.105469 33.550781 47.097656 C 31.792969 47.082031 31.792969 47.082031 30 47.0625 C 30 44.214844 30 41.371094 30 38.4375 Z M 30 38.4375 "/>
<path style=" stroke:none;fill-rule:nonzero;fill:rgb(97.647059%,97.647059%,97.647059%);fill-opacity:1;" d="M 21.5625 41.625 C 21.5625 42.554688 21.5625 43.480469 21.5625 44.4375 C 20.113281 45.03125 18.664062 45.621094 17.214844 46.207031 C 16.746094 46.398438 16.277344 46.589844 15.808594 46.78125 C 15.164062 47.042969 14.519531 47.304688 13.875 47.566406 C 13.675781 47.648438 13.476562 47.730469 13.273438 47.8125 C 13.089844 47.886719 12.90625 47.960938 12.714844 48.039062 C 12.554688 48.101562 12.390625 48.167969 12.226562 48.234375 C 11.8125 48.375 11.8125 48.375 11.25 48.375 C 11.25 48.5 11.25 48.621094 11.25 48.75 C 11.363281 48.78125 11.476562 48.816406 11.59375 48.847656 C 12.742188 49.183594 13.851562 49.574219 14.964844 50.011719 C 15.128906 50.074219 15.296875 50.140625 15.46875 50.207031 C 15.816406 50.34375 16.164062 50.480469 16.507812 50.617188 C 17.042969 50.824219 17.574219 51.03125 18.105469 51.242188 C 18.445312 51.375 18.785156 51.507812 19.125 51.640625 C 19.28125 51.703125 19.441406 51.761719 19.605469 51.828125 C 19.75 51.886719 19.898438 51.945312 20.050781 52.003906 C 20.179688 52.054688 20.308594 52.105469 20.441406 52.15625 C 20.824219 52.316406 21.191406 52.503906 21.5625 52.6875 C 21.5625 53.617188 21.5625 54.542969 21.5625 55.5 C 20.347656 55.148438 19.164062 54.757812 17.988281 54.292969 C 17.832031 54.230469 17.675781 54.171875 17.515625 54.109375 C 17.015625 53.914062 16.519531 53.714844 16.019531 53.519531 C 15.675781 53.382812 15.332031 53.25 14.988281 53.113281 C 12.425781 52.109375 9.867188 51.09375 7.3125 50.0625 C 7.3125 49.074219 7.3125 48.082031 7.3125 47.0625 C 10.324219 45.816406 13.347656 44.609375 16.378906 43.414062 C 16.773438 43.261719 17.167969 43.105469 17.558594 42.949219 C 18.117188 42.730469 18.675781 42.511719 19.234375 42.289062 C 19.40625 42.222656 19.574219 42.15625 19.75 42.085938 C 19.984375 41.996094 19.984375 41.996094 20.226562 41.902344 C 20.363281 41.847656 20.5 41.792969 20.640625 41.738281 C 21 41.625 21 41.625 21.5625 41.625 Z M 21.5625 41.625 "/>
<path style=" stroke:none;fill-rule:nonzero;fill:rgb(97.647059%,97.647059%,97.647059%);fill-opacity:1;" d="M 74.4375 41.625 C 75.691406 41.980469 76.898438 42.394531 78.109375 42.878906 C 78.273438 42.945312 78.4375 43.011719 78.605469 43.078125 C 79.136719 43.289062 79.664062 43.5 80.191406 43.710938 C 80.554688 43.855469 80.917969 44 81.28125 44.144531 C 81.988281 44.425781 82.699219 44.707031 83.410156 44.992188 C 84.617188 45.472656 85.824219 45.945312 87.035156 46.417969 C 87.210938 46.484375 87.382812 46.554688 87.5625 46.625 C 87.9375 46.769531 88.3125 46.917969 88.6875 47.0625 C 88.6875 48.050781 88.6875 49.042969 88.6875 50.0625 C 88.433594 50.160156 88.179688 50.257812 87.917969 50.359375 C 86.742188 50.816406 85.5625 51.269531 84.386719 51.726562 C 84.175781 51.808594 83.964844 51.890625 83.75 51.972656 C 81.175781 52.96875 78.601562 53.96875 76.046875 55.015625 C 75.882812 55.082031 75.71875 55.148438 75.550781 55.214844 C 75.414062 55.269531 75.28125 55.328125 75.140625 55.382812 C 74.8125 55.5 74.8125 55.5 74.4375 55.5 C 74.4375 54.570312 74.4375 53.644531 74.4375 52.6875 C 75.558594 52.105469 76.691406 51.621094 77.867188 51.167969 C 78.136719 51.0625 78.136719 51.0625 78.414062 50.957031 C 78.789062 50.808594 79.167969 50.664062 79.542969 50.519531 C 80.125 50.296875 80.699219 50.070312 81.277344 49.847656 C 81.644531 49.703125 82.011719 49.5625 82.378906 49.421875 C 82.554688 49.355469 82.726562 49.285156 82.90625 49.214844 C 83.066406 49.15625 83.226562 49.09375 83.390625 49.03125 C 83.601562 48.949219 83.601562 48.949219 83.816406 48.867188 C 84.1875 48.75 84.1875 48.75 84.75 48.75 C 84.75 48.625 84.75 48.503906 84.75 48.375 C 84.535156 48.351562 84.535156 48.351562 84.316406 48.332031 C 83.347656 48.128906 82.46875 47.761719 81.554688 47.398438 C 81.355469 47.316406 81.15625 47.238281 80.953125 47.160156 C 80.539062 46.992188 80.121094 46.828125 79.707031 46.660156 C 79.066406 46.40625 78.425781 46.152344 77.785156 45.898438 C 77.382812 45.738281 76.976562 45.578125 76.574219 45.414062 C 76.378906 45.339844 76.1875 45.261719 75.988281 45.183594 C 75.726562 45.078125 75.726562 45.078125 75.453125 44.96875 C 75.296875 44.90625 75.140625 44.847656 74.980469 44.78125 C 74.625 44.625 74.625 44.625 74.4375 44.4375 C 74.421875 43.964844 74.421875 43.492188 74.425781 43.019531 C 74.425781 42.886719 74.425781 42.753906 74.429688 42.617188 C 74.429688 42.285156 74.433594 41.957031 74.4375 41.625 Z M 74.4375 41.625 "/>
<path style=" stroke:none;fill-rule:nonzero;fill:rgb(78.823531%,78.823531%,78.823531%);fill-opacity:1;" d="M 66 35.8125 C 67.050781 35.8125 68.105469 35.8125 69.1875 35.8125 C 69.1875 43.855469 69.1875 51.898438 69.1875 60.1875 C 69 60.125 68.816406 60.0625 68.625 60 C 68.625 52.203125 68.625 44.40625 68.625 36.375 C 67.820312 36.375 67.015625 36.375 66.1875 36.375 C 66.1875 39.59375 66.1875 42.808594 66.1875 46.125 C 66.125 46.125 66.0625 46.125 66 46.125 C 66 42.722656 66 39.320312 66 35.8125 Z M 66 35.8125 "/>
<path style=" stroke:none;fill-rule:nonzero;fill:rgb(15.294118%,15.294118%,15.294118%);fill-opacity:1;" d="M 65.8125 35.8125 C 65.875 35.8125 65.9375 35.8125 66 35.8125 C 66 39.277344 66 42.742188 66 46.3125 C 61.667969 46.3125 57.335938 46.3125 52.875 46.3125 C 52.875 46.125 52.875 45.941406 52.875 45.75 C 57.144531 45.75 61.414062 45.75 65.8125 45.75 C 65.8125 42.46875 65.8125 39.191406 65.8125 35.8125 Z M 65.8125 35.8125 "/>
<path style=" stroke:none;fill-rule:nonzero;fill:rgb(6.27451%,6.27451%,6.27451%);fill-opacity:1;" d="M 30 49.6875 C 32.164062 49.6875 34.332031 49.6875 36.5625 49.6875 C 36.6875 49.996094 36.808594 50.304688 36.9375 50.625 C 36.8125 50.75 36.691406 50.871094 36.5625 51 C 36.46875 50.628906 36.46875 50.628906 36.375 50.25 C 34.332031 50.25 32.292969 50.25 30.1875 50.25 C 30.1875 53.53125 30.1875 56.808594 30.1875 60.1875 C 30.125 60.1875 30.0625 60.1875 30 60.1875 C 30 56.722656 30 53.257812 30 49.6875 Z M 30 49.6875 "/>
<path style=" stroke:none;fill-rule:nonzero;fill:rgb(94.509804%,94.509804%,94.509804%);fill-opacity:1;" d="M 66 35.8125 C 66.988281 35.8125 67.980469 35.8125 69 35.8125 C 68.9375 36 68.875 36.183594 68.8125 36.375 C 67.945312 36.375 67.078125 36.375 66.1875 36.375 C 66.1875 39.59375 66.1875 42.808594 66.1875 46.125 C 66.125 46.125 66.0625 46.125 66 46.125 C 66 42.722656 66 39.320312 66 35.8125 Z M 66 35.8125 "/>
<path style=" stroke:none;fill-rule:nonzero;fill:rgb(11.764706%,11.764706%,11.764706%);fill-opacity:1;" d="M 12.75 48.1875 C 12.5625 48.25 12.378906 48.3125 12.1875 48.375 C 12.1875 48.5 12.1875 48.621094 12.1875 48.75 C 11.878906 48.75 11.570312 48.75 11.25 48.75 C 11.25 48.625 11.25 48.503906 11.25 48.375 C 12.117188 47.976562 12.117188 47.976562 12.75 48.1875 Z M 12.75 48.1875 "/>
</g>
</svg>
